<svg width="17" height="17" viewBox="0 0 17 17" fill="none" xmlns="http://www.w3.org/2000/svg">
<path d="M0.292893 15.2929C-0.0976311 15.6834 -0.0976311 16.3166 0.292893 16.7071C0.683418 17.0976 1.31658 17.0976 1.70711 16.7071L0.292893 15.2929ZM17 1C17 0.447715 16.5523 -2.52353e-10 16 -2.53133e-07L7 5.47657e-07C6.44772 2.10482e-07 6 0.447716 6 1C6 1.55228 6.44772 2 7 2L15 2L15 10C15 10.5523 15.4477 11 16 11C16.5523 11 17 10.5523 17 10L17 1ZM1.70711 16.7071L16.7071 1.70711L15.2929 0.292893L0.292893 15.2929L1.70711 16.7071Z" fill="white"/>
</svg>
